<?xml version="1.0" encoding="UTF-8"?>
<svg width="29px" height="29px" viewBox="0 0 29 29" version="1.1" xmlns="http://www.w3.org/2000/svg" xmlns:xlink="http://www.w3.org/1999/xlink">
    <!-- Generator: Sketch 47.1 (45422) - http://www.bohemiancoding.com/sketch -->
    <title>Buscar</title>
    <desc>Created with Sketch.</desc>
    <defs>
        <filter x="-2.6%" y="-8.1%" width="105.3%" height="121.2%" filterUnits="objectBoundingBox" id="filter-1">
            <feOffset dx="0" dy="2" in="SourceAlpha" result="shadowOffsetOuter1"></feOffset>
            <feGaussianBlur stdDeviation="2.5" in="shadowOffsetOuter1" result="shadowBlurOuter1"></feGaussianBlur>
            <feColorMatrix values="0 0 0 0 0   0 0 0 0 0   0 0 0 0 0  0 0 0 0.25 0" type="matrix" in="shadowBlurOuter1" result="shadowMatrixOuter1"></feColorMatrix>
            <feMerge>
                <feMergeNode in="shadowMatrixOuter1"></feMergeNode>
                <feMergeNode in="SourceGraphic"></feMergeNode>
            </feMerge>
        </filter>
    </defs>
    <g id="Page-1" stroke="none" stroke-width="1" fill="none" fill-rule="evenodd" opacity="0.5">
        <g id="Mobile" transform="translate(-25.000000, -38.000000)" fill-rule="nonzero" fill="#FFFFFF">
            <g id="header" filter="url(#filter-1)" transform="translate(-1.000000, 0.000000)">
                <g id="Buscar" transform="translate(31.000000, 41.000000)">
                    <path d="M14.609375,12.1875 C15.390625,10.9583333 15.8489583,9.5 15.8489583,7.93229167 C15.8489583,3.55208333 12.3020833,0 7.92708333,0 C3.546875,0 0,3.55208333 0,7.93229167 C0,12.3125 3.546875,15.8645833 7.921875,15.8645833 C9.51041667,15.8645833 10.9895833,15.3958333 12.2291667,14.59375 L12.5885417,14.34375 L18.2447917,20 L20,18.2135417 L14.3489583,12.5572917 L14.609375,12.1875 Z M12.3645833,3.5 C13.546875,4.68229167 14.1979167,6.25520833 14.1979167,7.92708333 C14.1979167,9.59895833 13.546875,11.171875 12.3645833,12.3541667 C11.1822917,13.5364583 9.609375,14.1875 7.9375,14.1875 C6.265625,14.1875 4.69270833,13.5364583 3.51041667,12.3541667 C2.328125,11.171875 1.67708333,9.59895833 1.67708333,7.92708333 C1.67708333,6.25520833 2.328125,4.68229167 3.51041667,3.5 C4.69270833,2.31770833 6.265625,1.66666667 7.9375,1.66666667 C9.609375,1.66666667 11.1822917,2.31770833 12.3645833,3.5 Z" id="Shape"></path>
                </g>
            </g>
        </g>
    </g>
</svg>