<?xml version="1.0" encoding="UTF-8"?>
<svg width="31px" height="41px" viewBox="0 0 31 41" version="1.1" xmlns="http://www.w3.org/2000/svg" xmlns:xlink="http://www.w3.org/1999/xlink">
    <!-- Generator: Sketch 47.1 (45422) - http://www.bohemiancoding.com/sketch -->
    <title>Dash</title>
    <desc>Created with Sketch.</desc>
    <defs>
        <filter x="-2.6%" y="-8.1%" width="105.3%" height="121.2%" filterUnits="objectBoundingBox" id="filter-1">
            <feOffset dx="0" dy="2" in="SourceAlpha" result="shadowOffsetOuter1"></feOffset>
            <feGaussianBlur stdDeviation="2.5" in="shadowOffsetOuter1" result="shadowBlurOuter1"></feGaussianBlur>
            <feColorMatrix values="0 0 0 0 0   0 0 0 0 0   0 0 0 0 0  0 0 0 0.25 0" type="matrix" in="shadowBlurOuter1" result="shadowMatrixOuter1"></feColorMatrix>
            <feMerge>
                <feMergeNode in="shadowMatrixOuter1"></feMergeNode>
                <feMergeNode in="SourceGraphic"></feMergeNode>
            </feMerge>
        </filter>
    </defs>
    <g id="Page-1" stroke="none" stroke-width="1" fill="none" fill-rule="evenodd">
        <g id="Mobile" transform="translate(-104.000000, -37.000000)">
            <g id="header" filter="url(#filter-1)" transform="translate(-1.000000, 0.000000)">
                <g id="Dash" transform="translate(110.000000, 40.000000)">
                    <g id="Capa_1" fill-rule="nonzero" fill="#FFFFFF">
                        <path d="M17.0696174,9.94481747 L17.0715381,9.94481747 C17.3898034,9.94481747 17.6477576,10.883558 17.6477576,12.0417806 C17.6477576,13.2000032 17.3898034,14.1387437 17.0715381,14.1387437 C16.7532729,14.1387437 16.4943582,13.2000032 16.4943582,12.0417806 C16.4943582,10.883558 16.7513521,9.94481747 17.0696174,9.94481747 Z M14.9406143,6.10764741 L14.9390778,6.1125393 C14.7002028,6.87753856 14.6776662,8.19974799 14.8879223,9.06887473 C15.0016296,9.53919553 15.1606662,9.7788984 15.320471,9.7788984 C15.4560747,9.7788984 15.5923186,9.60628438 15.7019284,9.25499971 C15.9408034,8.49000045 15.9641082,7.16522859 15.7539162,6.29610185 C15.5436601,5.427441 15.1794893,5.34264815 14.9406143,6.10764741 Z M16.4263003,7.83087362 L16.4245717,7.83343558 C16.1301235,8.27339399 15.9904223,9.49661342 16.1113003,10.5675127 C16.2027912,11.3775579 16.4181052,11.8668922 16.6450076,11.8668922 C16.7181235,11.8668922 16.7923918,11.8161188 16.8640991,11.7089823 C17.1585473,11.2692568 17.2991448,10.04464 17.1782028,8.97350778 C17.0572607,7.9023756 16.7205564,7.39068232 16.4263003,7.83087362 Z M20.1383704,6.97623759 C19.4755899,5.40372279 18.4110564,4.009708 17.0596936,2.94479676 C16.8125595,2.75014291 16.4496692,2.78673759 16.2491448,3.02637368 C16.0484924,3.26607191 16.0861387,3.61822575 16.3332089,3.81294173 C17.5350107,4.75992989 18.4819954,6.0001725 19.0717241,7.39959262 C20.0126906,9.63155711 20.0016784,12.0853885 19.0407363,14.3092139 C18.0797302,16.5329772 16.283846,18.2605068 13.9838339,19.1735098 C11.6838857,20.0865749 9.15524239,20.0758885 6.86355336,19.1433766 C4.57192836,18.2108027 2.79166617,16.4680512 1.85089178,14.2361488 C0.909989338,12.0042465 0.921065557,9.55035297 1.88200763,7.32652753 C2.84301373,5.10270208 4.63889787,3.3751725 6.93884605,2.46210741 C8.43842531,1.86690031 10.0746967,1.6603796 11.6706326,1.86478788 C11.9848003,1.90529676 12.2756631,1.6898293 12.317343,1.38358966 C12.3589589,1.07741214 12.1369863,0.796459479 11.8214741,0.756074864 C10.0267424,0.526006817 8.18751373,0.75812516 6.50258385,1.42695652 C3.91766312,2.45316066 1.89929422,4.39466658 0.819202753,6.89397723 C-0.260888711,9.39335001 -0.273309443,12.1511843 0.784181411,14.6596281 C1.84160824,17.1680098 3.84230641,19.1266636 6.41781556,20.1747376 C7.71987958,20.7045837 9.08987348,20.9696311 10.4605717,20.9696311 C11.8011143,20.9696311 13.1421052,20.7160157 14.4201601,20.2086607 C17.0050808,19.1825187 19.0234497,17.2409506 20.1035412,14.7417021 C21.1835046,12.2423914 21.1958613,9.48455711 20.1383704,6.97623759 Z M6.37837653,16.6320898 L14.5393095,16.6320898 C14.8575747,16.6320898 15.115529,15.6933494 15.115529,14.5351267 C15.115529,13.3769041 14.8575747,12.4381636 14.5393095,12.4381636 L6.37837653,12.4381636 C6.06011129,12.4381636 5.80215702,13.3769041 5.80215702,14.5351267 C5.80215702,15.6933494 6.06011129,16.6320898 6.37837653,16.6320898 Z M10.2213125,11.0115926 C10.2983979,11.0454536 10.3791326,11.0615453 10.4586509,11.0615453 C10.6779345,11.0615453 10.8874863,10.9393973 10.983843,10.7328766 L15.6232424,0.789997941 C15.7545564,0.508672497 15.6259314,0.177332261 15.336029,0.0499653966 C15.0463186,-0.0774635974 14.7048125,0.0472316688 14.5734985,0.328681373 L9.93409909,10.2714979 C9.80278507,10.5528234 9.93141007,10.8841636 10.2213125,11.0115926 Z M10.7180137,4.62914587 C11.0385839,4.6450512 11.3056296,4.40504232 11.3203552,4.09656599 C11.3350808,3.78808966 11.0894192,3.52633522 10.7715381,3.51204528 C10.6577668,3.50688847 10.542907,3.50427901 10.4301601,3.50427901 C6.45290092,3.50427901 3.21717226,6.64433818 3.21717226,10.5039891 C3.21717226,10.8128382 3.47512653,11.0631607 3.79339178,11.0631607 C4.11165702,11.0631607 4.36961129,10.8128382 4.36961129,10.5039891 C4.36961129,7.16884114 7.24308995,4.471708 10.7180137,4.62914587 Z" id="Shape"></path>
                    </g>
                    <circle id="Oval-5" fill="#00FAFF" cx="10.5" cy="27.5" r="3.5"></circle>
                </g>
            </g>
        </g>
    </g>
</svg>