<?xml version="1.0" encoding="UTF-8"?>
<svg width="27px" height="26px" viewBox="0 0 27 26" version="1.1" xmlns="http://www.w3.org/2000/svg" xmlns:xlink="http://www.w3.org/1999/xlink">
    <!-- Generator: Sketch 47.1 (45422) - http://www.bohemiancoding.com/sketch -->
    <title>Group</title>
    <desc>Created with Sketch.</desc>
    <defs>
        <path d="M14.383275,0.439285714 C14.383275,0.176428571 14.5551,0.00142857143 14.812475,0.00142857143 C15.070575,0.00142857143 15.243125,0.176428571 15.243125,0.439285714 L15.243125,0.877142857 L19.111725,0.877142857 C19.369825,0.877142857 19.54165,1.05214286 19.54165,1.31428571 L19.54165,5.255 L21.262075,5.255 L21.262075,4.81714286 C21.262075,4.55428571 21.433175,4.38 21.692,4.38 C21.949375,4.38 22.1212,4.55428571 22.1212,4.81714286 L22.1212,5.255 L23.8409,5.255 L23.8409,4.81714286 C23.8409,4.55428571 24.01345,4.38 24.270825,4.38 C24.52965,4.38 24.70075,4.55428571 24.70075,4.81714286 L24.70075,5.255 L25.99125,5.255 C26.248625,5.255 26.421175,5.43 26.421175,5.69285714 L26.421175,21.4535714 L26.421175,24.9557143 C26.421175,25.2185714 26.248625,25.3942857 25.99125,25.3942857 L19.111725,25.3942857 L16.9621,25.3942857 L10.0833,25.3942857 L7.933675,25.3942857 L1.05415,25.3942857 C0.796775,25.3942857 0.624225,25.2185714 0.624225,24.9557143 L0.624225,21.4535714 L0.624225,5.69285714 C0.624225,5.43 0.796775,5.255 1.05415,5.255 L2.34465,5.255 L2.34465,4.81714286 C2.34465,4.55428571 2.516475,4.38 2.774575,4.38 C3.03195,4.38 3.2045,4.55428571 3.2045,4.81714286 L3.2045,5.255 L4.9242,5.255 L4.9242,4.81714286 C4.9242,4.55428571 5.096025,4.38 5.354125,4.38 C5.6115,4.38 5.78405,4.55428571 5.78405,4.81714286 L5.78405,5.255 L7.50375,5.255 L7.50375,1.31428571 C7.50375,1.05214286 7.6763,0.877142857 7.933675,0.877142857 L11.803,0.877142857 L11.803,0.439285714 C11.803,0.176428571 11.97555,0.00142857143 12.232925,0.00142857143 C12.491025,0.00142857143 12.66285,0.176428571 12.66285,0.439285714 L12.66285,0.877142857 L14.383275,0.877142857 L14.383275,0.439285714 Z M8.362875,21.4535714 L8.362875,24.5185714 L9.653375,24.5185714 L9.653375,20.5778571 C9.653375,20.3157143 9.8252,20.1407143 10.0833,20.1407143 L16.9621,20.1407143 C17.2202,20.1407143 17.39275,20.3157143 17.39275,20.5778571 L17.39275,24.5185714 L18.6818,24.5185714 L18.6818,21.4535714 L18.6818,5.69285714 L18.6818,1.75214286 L8.362875,1.75214286 L8.362875,5.69285714 L8.362875,21.4535714 Z M19.54165,21.0157143 L25.561325,21.0157143 L25.561325,6.13 L19.54165,6.13 L19.54165,21.0157143 Z M1.4848,21.0157143 L7.504475,21.0157143 L7.504475,6.13 L1.4848,6.13 L1.4848,21.0157143 Z M13.95335,24.5185714 L16.5329,24.5185714 L16.5329,21.0164286 L13.95335,21.0164286 L13.95335,24.5185714 Z M10.513225,24.5185714 L13.0935,24.5185714 L13.0935,21.0164286 L10.513225,21.0164286 L10.513225,24.5185714 Z M19.54165,24.5185714 L25.561325,24.5185714 L25.561325,21.8914286 L19.54165,21.8914286 L19.54165,24.5185714 Z M1.4848,24.5185714 L7.504475,24.5185714 L7.504475,21.8914286 L1.4848,21.8914286 L1.4848,24.5185714 Z" id="path-1"></path>
        <path d="M1.51815,0.37 L2.378,0.37 C2.851425,0.37 3.23785,0.764285714 3.23785,1.24571429 L3.23785,2.12142857 C3.23785,2.60285714 2.851425,2.99714286 2.378,2.99714286 L1.51815,2.99714286 C1.044725,2.99714286 0.6583,2.60285714 0.6583,2.12142857 L0.6583,1.24571429 C0.6583,0.764285714 1.044725,0.37 1.51815,0.37 Z M1.51815,2.12214286 L2.378,2.12214286 L2.378,1.24571429 L1.51815,1.24571429 L1.51815,2.12214286 Z" id="path-3"></path>
        <path d="M1.4674,0.37 L2.32725,0.37 C2.800675,0.37 3.1871,0.764285714 3.1871,1.24571429 L3.1871,2.12142857 C3.1871,2.60285714 2.800675,2.99714286 2.32725,2.99714286 L1.4674,2.99714286 C0.9947,2.99714286 0.60755,2.60285714 0.60755,2.12142857 L0.60755,1.24571429 C0.60755,0.764285714 0.9947,0.37 1.4674,0.37 Z M1.4674,2.12214286 L2.32725,2.12214286 L2.32725,1.24571429 L1.4674,1.24571429 L1.4674,2.12214286 Z" id="path-5"></path>
        <path d="M0.954825,0.42 L1.814675,0.42 C2.287375,0.42 2.674525,0.813571429 2.674525,1.29571429 L2.674525,2.17142857 C2.674525,2.65285714 2.287375,3.04642857 1.814675,3.04642857 L0.954825,3.04642857 C0.482125,3.04642857 0.094975,2.65285714 0.094975,2.17142857 L0.094975,1.29571429 C0.094975,0.813571429 0.482125,0.42 0.954825,0.42 Z M0.954825,2.17142857 L1.814675,2.17142857 L1.814675,1.29571429 L0.954825,1.29571429 L0.954825,2.17142857 Z" id="path-7"></path>
        <path d="M1.51815,0.232142857 L2.378,0.232142857 C2.851425,0.232142857 3.23785,0.626428571 3.23785,1.10714286 L3.23785,1.98357143 C3.23785,2.465 2.851425,2.85928571 2.378,2.85928571 L1.51815,2.85928571 C1.044725,2.85928571 0.6583,2.465 0.6583,1.98357143 L0.6583,1.10714286 C0.6583,0.626428571 1.044725,0.232142857 1.51815,0.232142857 Z M1.51815,1.98357143 L2.378,1.98357143 L2.378,1.10714286 L1.51815,1.10714286 L1.51815,1.98357143 Z" id="path-9"></path>
        <path d="M1.4674,0.232142857 L2.32725,0.232142857 C2.800675,0.232142857 3.1871,0.626428571 3.1871,1.10714286 L3.1871,1.98357143 C3.1871,2.465 2.800675,2.85928571 2.32725,2.85928571 L1.4674,2.85928571 C0.9947,2.85928571 0.60755,2.465 0.60755,1.98357143 L0.60755,1.10714286 C0.60755,0.626428571 0.9947,0.232142857 1.4674,0.232142857 Z M1.4674,1.98357143 L2.32725,1.98357143 L2.32725,1.10714286 L1.4674,1.10714286 L1.4674,1.98357143 Z" id="path-11"></path>
        <path d="M0.993975,0.317857143 L1.8531,0.317857143 C2.3258,0.317857143 2.71295,0.712142857 2.71295,1.19285714 L2.71295,2.06857143 C2.71295,2.55071429 2.3258,2.945 1.8531,2.945 L0.993975,2.945 C0.52055,2.945 0.1334,2.55071429 0.1334,2.06857143 L0.1334,1.19285714 C0.1334,0.712142857 0.52055,0.317857143 0.993975,0.317857143 Z M0.993975,2.06857143 L1.8531,2.06857143 L1.8531,1.19285714 L0.993975,1.19285714 L0.993975,2.06857143 Z" id="path-13"></path>
        <path d="M1.0962,0.577142857 L1.95605,0.577142857 C2.429475,0.577142857 2.8159,0.971428571 2.8159,1.45357143 L2.8159,2.32928571 C2.8159,2.81 2.429475,3.20428571 1.95605,3.20428571 L1.0962,3.20428571 C0.6235,3.20428571 0.237075,2.81 0.237075,2.32928571 L0.237075,1.45357143 C0.237075,0.971428571 0.6235,0.577142857 1.0962,0.577142857 Z M1.0962,2.32928571 L1.95605,2.32928571 L1.95605,1.45357143 L1.0962,1.45357143 L1.0962,2.32928571 Z" id="path-15"></path>
        <path d="M1.0962,0.508571429 L1.95605,0.508571429 C2.429475,0.508571429 2.8159,0.902142857 2.8159,1.38428571 L2.8159,2.26 C2.8159,2.74214286 2.429475,3.13571429 1.95605,3.13571429 L1.0962,3.13571429 C0.6235,3.13571429 0.237075,2.74214286 0.237075,2.26 L0.237075,1.38428571 C0.237075,0.902142857 0.6235,0.508571429 1.0962,0.508571429 Z M1.0962,2.26 L1.95605,2.26 L1.95605,1.38428571 L1.0962,1.38428571 L1.0962,2.26 Z" id="path-17"></path>
        <path d="M1.0962,0.439285714 L1.95605,0.439285714 C2.429475,0.439285714 2.8159,0.832857143 2.8159,1.315 L2.8159,2.19071429 C2.8159,2.67285714 2.429475,3.06642857 1.95605,3.06642857 L1.0962,3.06642857 C0.6235,3.06642857 0.237075,2.67285714 0.237075,2.19071429 L0.237075,1.315 C0.237075,0.832857143 0.6235,0.439285714 1.0962,0.439285714 Z M1.0962,2.19071429 L1.95605,2.19071429 L1.95605,1.315 L1.0962,1.315 L1.0962,2.19071429 Z" id="path-19"></path>
        <path d="M1.163625,0.577857143 L2.0242,0.577857143 C2.4969,0.577857143 2.88405,0.971428571 2.88405,1.45357143 L2.88405,2.32928571 C2.88405,2.81071429 2.4969,3.20428571 2.0242,3.20428571 L1.163625,3.20428571 C0.69165,3.20428571 0.3045,2.81071429 0.3045,2.32928571 L0.3045,1.45357143 C0.3045,0.971428571 0.69165,0.577857143 1.163625,0.577857143 Z M1.163625,2.32928571 L2.023475,2.32928571 L2.023475,1.45357143 L1.163625,1.45357143 L1.163625,2.32928571 Z" id="path-21"></path>
        <path d="M1.163625,0.508571429 L2.0242,0.508571429 C2.4969,0.508571429 2.88405,0.902142857 2.88405,1.38428571 L2.88405,2.26 C2.88405,2.74214286 2.4969,3.13571429 2.0242,3.13571429 L1.163625,3.13571429 C0.69165,3.13571429 0.3045,2.74214286 0.3045,2.26 L0.3045,1.38428571 C0.3045,0.902142857 0.69165,0.508571429 1.163625,0.508571429 Z M1.163625,2.26 L2.023475,2.26 L2.023475,1.38428571 L1.163625,1.38428571 L1.163625,2.26 Z" id="path-23"></path>
        <path d="M1.163625,0.371428571 L2.0242,0.371428571 C2.4969,0.371428571 2.88405,0.765 2.88405,1.24571429 L2.88405,2.12142857 C2.88405,2.60357143 2.4969,2.99785714 2.0242,2.99785714 L1.163625,2.99785714 C0.69165,2.99785714 0.3045,2.60357143 0.3045,2.12142857 L0.3045,1.24571429 C0.3045,0.765 0.69165,0.371428571 1.163625,0.371428571 Z M1.163625,2.12142857 L2.023475,2.12142857 L2.023475,1.24571429 L1.163625,1.24571429 L1.163625,2.12142857 Z" id="path-25"></path>
    </defs>
    <g id="Page-1" stroke="none" stroke-width="1" fill="none" fill-rule="evenodd" opacity="0.5">
        <g id="Mobile" transform="translate(-188.000000, -37.000000)">
            <g id="Group" transform="translate(188.000000, 37.000000)">
                <g id="Page-1">
                    <g id="Group">
                        <g id="Group-8" transform="translate(0.175000, 0.000000)">
                            <g id="Fill-6-Clipped">
                                <mask id="mask-2" fill="white">
                                    <use xlink:href="#path-1"></use>
                                </mask>
                                <g id="path-1"></g>
                                <polygon id="Fill-6" fill="#FFFFFF" fill-rule="nonzero" mask="url(#mask-2)" points="-1.859625 27.8414286 28.905025 27.8414286 28.905025 -2.44571429 -1.859625 -2.44571429"></polygon>
                            </g>
                        </g>
                        <g id="Group-11" transform="translate(9.600000, 3.571429)">
                            <g id="Fill-9-Clipped">
                                <mask id="mask-4" fill="white">
                                    <use xlink:href="#path-3"></use>
                                </mask>
                                <g id="path-3"></g>
                                <polygon id="Fill-9" fill="#FFFFFF" fill-rule="nonzero" mask="url(#mask-4)" points="-1.82555 5.445 5.722425 5.445 5.722425 -2.07714286 -1.82555 -2.07714286"></polygon>
                            </g>
                        </g>
                        <g id="Group-14" transform="translate(13.950000, 3.571429)">
                            <g id="Fill-12-Clipped">
                                <mask id="mask-6" fill="white">
                                    <use xlink:href="#path-5"></use>
                                </mask>
                                <g id="path-5"></g>
                                <polygon id="Fill-12" fill="#FFFFFF" fill-rule="nonzero" mask="url(#mask-6)" points="-1.8763 5.445 5.671675 5.445 5.671675 -2.07714286 -1.8763 -2.07714286"></polygon>
                            </g>
                        </g>
                        <g id="Group-17" transform="translate(10.325000, 7.142857)">
                            <g id="Fill-15-Clipped">
                                <mask id="mask-8" fill="white">
                                    <use xlink:href="#path-7"></use>
                                </mask>
                                <g id="path-7"></g>
                                <polygon id="Fill-15" fill="#FFFFFF" fill-rule="nonzero" mask="url(#mask-8)" points="-2.3896 5.49428571 5.158375 5.49428571 5.158375 -2.02714286 -2.3896 -2.02714286"></polygon>
                            </g>
                        </g>
                        <g id="Group-20" transform="translate(9.600000, 10.714286)">
                            <g id="Fill-18-Clipped">
                                <mask id="mask-10" fill="white">
                                    <use xlink:href="#path-9"></use>
                                </mask>
                                <g id="path-9"></g>
                                <polygon id="Fill-18" fill="#FFFFFF" fill-rule="nonzero" mask="url(#mask-10)" points="-1.82555 5.30642857 5.722425 5.30642857 5.722425 -2.21571429 -1.82555 -2.21571429"></polygon>
                            </g>
                        </g>
                        <g id="Group-23" transform="translate(13.950000, 10.714286)">
                            <g id="Fill-21-Clipped">
                                <mask id="mask-12" fill="white">
                                    <use xlink:href="#path-11"></use>
                                </mask>
                                <g id="path-11"></g>
                                <polygon id="Fill-21" fill="#FFFFFF" fill-rule="nonzero" mask="url(#mask-12)" points="-1.8763 5.30642857 5.671675 5.30642857 5.671675 -2.21571429 -1.8763 -2.21571429"></polygon>
                            </g>
                        </g>
                        <g id="Group-26" transform="translate(14.675000, 14.285714)">
                            <g id="Fill-24-Clipped">
                                <mask id="mask-14" fill="white">
                                    <use xlink:href="#path-13"></use>
                                </mask>
                                <g id="path-13"></g>
                                <polygon id="Fill-24" fill="#FFFFFF" fill-rule="nonzero" mask="url(#mask-14)" points="-2.35045 5.39142857 5.197525 5.39142857 5.197525 -2.13 -2.35045 -2.13"></polygon>
                            </g>
                        </g>
                        <g id="Group-29" transform="translate(21.200000, 6.428571)">
                            <g id="Fill-27-Clipped">
                                <mask id="mask-16" fill="white">
                                    <use xlink:href="#path-15"></use>
                                </mask>
                                <g id="path-15"></g>
                                <polygon id="Fill-27" fill="#FFFFFF" fill-rule="nonzero" mask="url(#mask-16)" points="-2.2475 5.65214286 5.300475 5.65214286 5.300475 -1.86928571 -2.2475 -1.86928571"></polygon>
                            </g>
                        </g>
                        <g id="Group-32" transform="translate(21.200000, 10.000000)">
                            <g id="Fill-30-Clipped">
                                <mask id="mask-18" fill="white">
                                    <use xlink:href="#path-17"></use>
                                </mask>
                                <g id="path-17"></g>
                                <polygon id="Fill-30" fill="#FFFFFF" fill-rule="nonzero" mask="url(#mask-18)" points="-2.2475 5.58285714 5.300475 5.58285714 5.300475 -1.93857143 -2.2475 -1.93857143"></polygon>
                            </g>
                        </g>
                        <g id="Group-35" transform="translate(21.200000, 13.571429)">
                            <g id="Fill-33-Clipped">
                                <mask id="mask-20" fill="white">
                                    <use xlink:href="#path-19"></use>
                                </mask>
                                <g id="path-19"></g>
                                <polygon id="Fill-33" fill="#FFFFFF" fill-rule="nonzero" mask="url(#mask-20)" points="-2.2475 5.51357143 5.300475 5.51357143 5.300475 -2.00785714 -2.2475 -2.00785714"></polygon>
                            </g>
                        </g>
                        <g id="Group-38" transform="translate(3.075000, 6.428571)">
                            <g id="Fill-36-Clipped">
                                <mask id="mask-22" fill="white">
                                    <use xlink:href="#path-21"></use>
                                </mask>
                                <g id="path-21"></g>
                                <polygon id="Fill-36" fill="#FFFFFF" fill-rule="nonzero" mask="url(#mask-22)" points="-2.180075 5.65214286 5.3679 5.65214286 5.3679 -1.86928571 -2.180075 -1.86928571"></polygon>
                            </g>
                        </g>
                        <g id="Group-41" transform="translate(3.075000, 10.000000)">
                            <g id="Fill-39-Clipped">
                                <mask id="mask-24" fill="white">
                                    <use xlink:href="#path-23"></use>
                                </mask>
                                <g id="path-23"></g>
                                <polygon id="Fill-39" fill="#FFFFFF" fill-rule="nonzero" mask="url(#mask-24)" points="-2.180075 5.58285714 5.3679 5.58285714 5.3679 -1.93857143 -2.180075 -1.93857143"></polygon>
                            </g>
                        </g>
                        <g id="Group-44" transform="translate(3.075000, 17.142857)">
                            <g id="Fill-42-Clipped">
                                <mask id="mask-26" fill="white">
                                    <use xlink:href="#path-25"></use>
                                </mask>
                                <g id="path-25"></g>
                                <polygon id="Fill-42" fill="#FFFFFF" fill-rule="nonzero" mask="url(#mask-26)" points="-2.180075 5.445 5.3679 5.445 5.3679 -2.07642857 -2.180075 -2.07642857"></polygon>
                            </g>
                        </g>
                    </g>
                </g>
            </g>
        </g>
    </g>
</svg>