<?xml version="1.0" encoding="UTF-8"?>
<svg width="19px" height="18px" viewBox="0 0 19 18" version="1.1" xmlns="http://www.w3.org/2000/svg" xmlns:xlink="http://www.w3.org/1999/xlink">
    <!-- Generator: Sketch 47.1 (45422) - http://www.bohemiancoding.com/sketch -->
    <title>ios-compose-outline</title>
    <desc>Created with Sketch.</desc>
    <defs></defs>
    <g id="Page-1" stroke="none" stroke-width="1" fill="none" fill-rule="evenodd">
        <g id="Mobile" transform="translate(-279.000000, -203.000000)" fill-rule="nonzero" fill="#727272">
            <g id="profile" transform="translate(11.000000, 162.000000)">
                <g transform="translate(0.000000, 30.000000)" id="Group-16">
                    <g>
                        <g id="ios-compose-outline" transform="translate(268.000000, 11.000000)">
                            <g id="Layer_1">
                                <g id="Group">
                                    <polygon id="Shape" points="2.592154 16.238696 1.83515797 15.5224739 15.1970816 2.88156356 14.3147515 2.04677045 0.281779661 15.3213385 0.281779661 17.7081798 2.79438877 17.7081798 16.8365637 4.4282255 15.9541556 3.59549834"></polygon>
                                    <path d="M18.7046421,1.20356595 L17.7324645,0.283773581 C17.5246923,0.108241249 17.2495344,0 16.9523827,0 C16.6550749,0 16.3827248,0.108315033 16.1779943,0.284068718 L15.2303064,1.18054532 L15.2365458,1.18644805 L16.1173161,2.01969169 L17.7567202,3.57063311 L18.7043301,2.6741565 C18.8901864,2.48047329 19,2.22281927 19,1.94155435 C19,1.66043699 18.8901864,1.40005297 18.7046421,1.20356595 Z" id="Shape"></path>
                                </g>
                            </g>
                        </g>
                    </g>
                </g>
            </g>
        </g>
    </g>
</svg>