<?xml version="1.0" encoding="UTF-8"?>
<svg width="13px" height="8px" viewBox="0 0 13 8" version="1.1" xmlns="http://www.w3.org/2000/svg" xmlns:xlink="http://www.w3.org/1999/xlink">
    <!-- Generator: Sketch 47.1 (45422) - http://www.bohemiancoding.com/sketch -->
    <title>mail icon</title>
    <desc>Created with Sketch.</desc>
    <defs></defs>
    <g id="Page-1" stroke="none" stroke-width="1" fill="none" fill-rule="evenodd">
        <g id="Mobile" transform="translate(-27.000000, -279.000000)" fill="#AFAFAF">
            <g id="profile" transform="translate(11.000000, 162.000000)">
                <g transform="translate(0.000000, 30.000000)" id="Group-16">
                    <g>
                        <g id="Group-2" transform="translate(16.000000, 75.000000)">
                            <g id="mail-icon" transform="translate(0.000000, 12.000000)">
                                <path d="M12.2897561,6.91623529 C12.2897561,7.28423529 12.1005585,7.52941176 11.5908571,7.52941176 L1.73447268,7.52941176 C1.22477122,7.52941176 0.646829268,7.28423529 0.646829268,6.91623529 L0.646829268,1.13129412 C0.646829268,0.920705882 0.867074634,0.734823529 1.0785878,0.612470588 L6.73996098,4.74705882 L12.1535985,0.696941176 C12.2939605,0.814117647 12.2897561,0.964705882 12.2897561,1.13129412 L12.2897561,6.91623529 Z M11.6846473,0.474117647 L6.78103463,4.08305882 L1.86804293,0.470588235 L11.5908571,0.470588235 C11.6228751,0.470588235 11.6532761,0.471764706 11.6846473,0.474117647 L11.6846473,0.474117647 Z M11.5908571,0 L1.73447268,0 C0.885185854,0 1.42108547e-14,0.518117647 1.42108547e-14,1.13129412 L1.42108547e-14,6.91623529 C1.42108547e-14,7.52964706 0.885185854,8 1.73447268,8 L11.5908571,8 C12.4401439,8 12.9365854,7.52964706 12.9365854,6.91623529 L12.9365854,1.13129412 C12.9365854,0.518117647 12.4401439,0 11.5908571,0 L11.5908571,0 Z" id="Fill-106"></path>
                            </g>
                        </g>
                    </g>
                </g>
            </g>
        </g>
    </g>
</svg>