<?xml version="1.0" encoding="UTF-8"?>
<svg width="31px" height="31px" viewBox="0 0 31 31" version="1.1" xmlns="http://www.w3.org/2000/svg" xmlns:xlink="http://www.w3.org/1999/xlink">
    <!-- Generator: Sketch 47.1 (45422) - http://www.bohemiancoding.com/sketch -->
    <title>mis factutas</title>
    <desc>Created with Sketch.</desc>
    <defs>
        <filter x="-2.6%" y="-8.1%" width="105.3%" height="121.2%" filterUnits="objectBoundingBox" id="filter-1">
            <feOffset dx="0" dy="2" in="SourceAlpha" result="shadowOffsetOuter1"></feOffset>
            <feGaussianBlur stdDeviation="2.5" in="shadowOffsetOuter1" result="shadowBlurOuter1"></feGaussianBlur>
            <feColorMatrix values="0 0 0 0 0   0 0 0 0 0   0 0 0 0 0  0 0 0 0.25 0" type="matrix" in="shadowBlurOuter1" result="shadowMatrixOuter1"></feColorMatrix>
            <feMerge>
                <feMergeNode in="shadowMatrixOuter1"></feMergeNode>
                <feMergeNode in="SourceGraphic"></feMergeNode>
            </feMerge>
        </filter>
    </defs>
    <g id="Page-1" stroke="none" stroke-width="1" fill="none" fill-rule="evenodd" opacity="0.5">
        <g id="Mobile" transform="translate(-265.000000, -37.000000)" fill-rule="nonzero" fill="#FFFFFF">
            <g id="header" filter="url(#filter-1)" transform="translate(-1.000000, 0.000000)">
                <g id="mis-factutas" transform="translate(271.000000, 40.000000)">
                    <g id="stack-of-sheets">
                        <g id="Capa_1">
                            <path d="M11.7540415,0.0665564516 C11.4077958,0.0665564516 11.0615502,0.150810484 10.7679862,0.319403226 L0.52267474,6.20253629 C0.229038062,6.37112903 0.000944636678,6.64768548 0.000944636678,7.00561694 C0.000944636678,7.36354839 0.229038062,7.64010484 0.52267474,7.80869758 L6.28561246,11.1178911 C6.32841176,11.1425323 6.37571626,11.1548105 6.42338408,11.1537944 L12.1863218,11.0312661 C12.2302837,11.0303347 12.2735917,11.0180565 12.3130484,10.9953629 L20.423917,6.33793548 C20.7175536,6.16934274 20.9456471,5.89278629 20.9456471,5.53485484 C20.9456471,5.17692339 20.7175536,4.90036694 20.423917,4.73177419 L12.7399516,0.319403226 C12.4463149,0.150810484 12.1002145,0.0665564516 11.7540415,0.0665564516 Z M11.7540415,0.790633065 C12.0250796,0.790633065 12.296045,0.842116935 12.4754533,0.945084677 L20.1592734,5.35737097 C20.338609,5.46033871 20.3470381,5.53832661 20.3470381,5.53485484 C20.3470381,5.53138306 20.338609,5.60928629 20.1592734,5.71233871 L12.1807993,10.2938105 L9.3250173,8.6538629 C9.28003806,8.62795161 9.23011765,8.61567339 9.17997924,8.61812903 C9.13841522,8.62024597 9.09765052,8.63235484 9.0603737,8.6538629 L6.20444637,10.2938105 L0.787391003,7.18310081 C0.608055363,7.08013306 0.599626298,7.00214516 0.599626298,7.00561694 C0.599626298,7.00908871 0.608055363,6.93118548 0.787391003,6.82813306 L11.0324844,0.945 C11.2118201,0.842032258 11.4829308,0.790633065 11.7540415,0.790633065 Z M12.6015986,2.41779435 C12.5189792,2.42041935 12.4537993,2.50052419 12.4560519,2.59680242 C12.4575779,2.66242742 12.4906401,2.72153226 12.5415779,2.74972984 L16.8104637,5.2008871 C16.8836367,5.24568145 16.9741038,5.21291129 17.0125433,5.12772581 C17.0509827,5.04245565 17.0228616,4.93703226 16.9497612,4.8922379 C16.947436,4.89079839 16.9451107,4.88944355 16.9427128,4.88817339 L12.673827,2.43684677 C12.6514464,2.42355242 12.6266678,2.41703226 12.6015986,2.41779435 Z M10.4672284,3.6435 C10.384609,3.64629435 10.3195744,3.72656855 10.3219723,3.82284677 C10.3235709,3.88830242 10.3564879,3.94706855 10.4072076,3.97526613 L14.6759481,6.42659274 C14.7491211,6.4713871 14.8395882,6.43861694 14.8780277,6.35343145 C14.9164671,6.26816129 14.888346,6.1627379 14.8152457,6.11794355 C14.8129204,6.11650403 14.8105952,6.11514919 14.8081972,6.11387903 L10.5394567,3.66255242 C10.5170761,3.64925806 10.4922249,3.64265323 10.4672284,3.6435 Z M8.33278547,4.86920565 C8.25016609,4.872 8.18513149,4.95227419 8.18752941,5.04855242 C8.18912803,5.11400806 8.22204498,5.17277419 8.27276471,5.20097177 L12.5415052,7.65229839 C12.6156228,7.69489113 12.7053633,7.65932661 12.7419135,7.57287097 C12.7784637,7.48641532 12.7479446,7.38192339 12.6737543,7.33933065 L8.40508651,4.88817339 C8.38270588,4.87487903 8.35785467,4.86835887 8.33278547,4.86920565 Z M4.6442699,4.99156452 C4.62072664,4.99164919 4.59754671,4.99825403 4.57654671,5.01078629 L1.37488235,6.84921774 C1.30076471,6.89172581 1.27024567,6.99630242 1.30672318,7.08267339 C1.32132872,7.1171371 1.34523529,7.14508065 1.37488235,7.16210081 L2.86893426,8.01996774 C2.94210727,8.0647621 3.03257439,8.03199194 3.07101384,7.94680645 C3.10945329,7.86153629 3.08133218,7.7561129 3.00823183,7.71131855 C3.00590657,7.70987903 3.00358131,7.70852419 3.00118339,7.70725403 L1.77962284,7.00570161 L4.70879585,5.32358468 C4.78342215,5.2822621 4.81524913,5.17827823 4.77978893,5.09122984 C4.75501038,5.03017742 4.70218339,4.99139516 4.6442699,4.99156452 Z M9.19255017,9.35541532 L10.9421626,10.3601129 L7.30836332,10.4373387 L9.19255017,9.35541532 Z M20.5272457,9.39860081 C20.4700588,9.39834677 20.4136713,9.41384274 20.3625882,9.44373387 L9.06822145,15.8362016 L0.533574394,10.8430282 C0.35532872,10.7356573 0.136100346,10.8170323 0.0439619377,11.024746 C-0.0481764706,11.2324597 0.0216539792,11.4879315 0.199899654,11.5953024 C0.202442907,11.5968266 0.204986159,11.5983508 0.207602076,11.5997903 L8.90261938,16.6867016 C9.0036955,16.7458065 9.12264706,16.7467379 9.22437716,16.6891573 L20.6800588,10.2054073 C20.8617924,10.10625 20.9401972,9.85416532 20.8551073,9.6423871 C20.7955225,9.49411694 20.6677785,9.39910887 20.5272457,9.39860081 Z M12.6540623,12.7851895 C12.6255052,12.7854435 12.5973841,12.7935726 12.5720242,12.8088145 L9.02084429,14.8779919 L5.83284083,12.9790161 C5.743391,12.9259234 5.63395848,12.9673306 5.58839792,13.0714839 C5.54291003,13.1754677 5.57822491,13.3027379 5.66731142,13.3560847 L8.93720761,15.3036653 C8.98865398,15.3343185 9.04947405,15.3345726 9.10113841,15.3045121 L12.7343564,13.1875766 C12.8247509,13.1367702 12.862609,13.0101774 12.8190104,12.9049234 C12.788564,12.8311694 12.7243287,12.7845968 12.6540623,12.7851895 Z M20.5272457,13.6217177 C20.4700588,13.6214637 20.4136713,13.6369597 20.3625882,13.6668508 L9.06822145,20.0591492 L0.533574394,15.0661452 C0.356273356,14.9566573 0.136318339,15.0353226 0.0423633218,15.2419355 C-0.0515916955,15.4485484 0.0159134948,15.7048669 0.193214533,15.8143548 C0.197937716,15.8173185 0.202733564,15.8201129 0.207602076,15.8227379 L8.90261938,20.9096492 C9.0036955,20.968754 9.12264706,20.9696855 9.22437716,20.9121048 L20.6800588,14.4285242 C20.8617924,14.3293669 20.9401972,14.0772823 20.8551073,13.865504 C20.7955225,13.7172339 20.6677785,13.6222258 20.5272457,13.6217177 Z M12.6540623,17.0081371 C12.6255052,17.0083911 12.5973841,17.0165202 12.5720242,17.0317621 L9.02084429,19.1009395 L5.83284083,17.2021331 C5.74419031,17.1472621 5.63424913,17.1865524 5.58716263,17.2898589 C5.54007612,17.3931653 5.57379239,17.5212823 5.66244291,17.5761532 C5.66404152,17.5771694 5.6657128,17.5781008 5.66738408,17.5791169 L8.93728028,19.5266976 C8.98872664,19.5573508 9.04954671,19.5576048 9.10121107,19.5275444 L12.7344291,17.4106089 C12.8248235,17.3598024 12.8626817,17.2332097 12.819083,17.1279556 C12.788564,17.0541169 12.7243287,17.0075444 12.6540623,17.0081371 Z" id="path22217"></path>
                        </g>
                    </g>
                </g>
            </g>
        </g>
    </g>
</svg>