<?xml version="1.0" encoding="UTF-8"?>
<svg width="84px" height="13px" viewBox="0 0 84 13" version="1.1" xmlns="http://www.w3.org/2000/svg" xmlns:xlink="http://www.w3.org/1999/xlink">
    <!-- Generator: Sketch 47.1 (45422) - http://www.bohemiancoding.com/sketch -->
    <title>redes sociales</title>
    <desc>Created with Sketch.</desc>
    <defs></defs>
    <g id="Page-1" stroke="none" stroke-width="1" fill="none" fill-rule="evenodd">
        <g id="Mobile" transform="translate(-29.000000, -346.000000)">
            <g id="profile" transform="translate(11.000000, 162.000000)">
                <g transform="translate(0.000000, 30.000000)" id="redes-sociales">
                    <g transform="translate(18.000000, 154.000000)">
                        <g id="Group-29" transform="translate(0.000000, 2.000000)" fill-rule="nonzero" fill="#00AAF2">
                            <g id="Layer_1-Copy">
                                <path d="M11.5140748,6.26139411 C11.3237207,5.99421083 11.2355012,5.66788984 11.2358603,5.33810446 C11.2358903,5.33618993 11.2358903,5.3342754 11.2358903,5.33233048 C11.2358903,2.39522887 8.89125187,0.0142222222 5.99901247,0.0142222222 C5.36630424,0.0142222222 4.76004988,0.128577398 4.19865337,0.337565052 C3.89494264,0.450613485 3.56223441,0.47234188 3.25086284,0.383270655 C2.97582045,0.304592593 2.68201496,0.271407407 2.37764589,0.292679962 C1.09909227,0.382024691 0.0697855362,1.44610826 0.00353117207,2.74583096 C-0.0280997506,3.36619943 0.155102244,3.94168281 0.4839202,4.40323647 C0.674274314,4.67041975 0.762493766,4.99674074 0.762104738,5.32652612 L0.762104738,5.33230009 C0.762104738,8.26940171 3.10671322,10.6504084 5.99898254,10.6504084 C6.6317207,10.6504084 7.23797506,10.5360532 7.79934165,10.3270655 C8.10305237,10.2140171 8.4357606,10.1922887 8.74713217,10.2813599 C9.02217456,10.360038 9.31595012,10.3932232 9.62034913,10.3719506 C10.8989027,10.2826059 11.9281796,9.21855271 11.9944638,7.9188604 C12.0260948,7.29849193 11.8428928,6.72297816 11.5140748,6.26139411 Z M6.19071322,4.37889459 C7.24665337,4.63389174 8.84232419,5.01922887 8.84232419,6.80414815 C8.84232419,7.683434 8.4159202,8.35418803 7.64160599,8.69281671 C7.08906733,8.93447293 6.4637207,8.96708072 5.92485786,8.96708072 C4.26891771,8.96708072 3.22303242,7.65948718 3.17931172,7.60381387 C2.90812968,7.25840836 2.96394015,6.75509972 3.30409975,6.4797113 C3.64416958,6.20420133 4.13979052,6.26102944 4.41103242,6.60634378 C4.41345636,6.60929155 5.03892269,7.33875783 5.92485786,7.36729345 C6.99169077,7.40166382 7.23543142,7.07932384 7.26694264,6.80417854 C7.30545636,6.46813295 7.01108229,6.2214321 5.82616459,5.93528585 C4.82181546,5.69271795 3.30386035,5.32616144 3.30386035,3.68230959 C3.30386035,3.17040076 3.50887781,1.50014055 6.14714214,1.50014055 C7.81301746,1.50014055 8.79632918,2.83207597 8.83738653,2.88878253 C9.09504239,3.24473314 9.01981047,3.7454283 8.66929676,4.00705033 C8.32030923,4.26754796 7.83037406,4.19300285 7.57173067,3.84136752 C7.55317706,3.8171472 6.99031421,3.18121937 6.14714214,3.09992783 C5.50913716,3.03838936 4.87921197,3.27202279 4.87921197,3.6171548 C4.87921197,3.98283001 5.06010973,4.10584615 6.19071322,4.37889459 Z" id="Shape"></path>
                            </g>
                        </g>
                        <g id="Group-39" transform="translate(72.000000, 0.000000)">
                            <g id="Group-6-Copy">
                                <path d="M5.98531034,0 C9.2907931,0 11.9706724,2.67987931 11.9706724,5.98536207 C11.9706724,9.29084483 9.2907931,11.9707241 5.98531034,11.9707241 C2.67982759,11.9707241 0,9.29084483 0,5.98536207 C0,2.67987931 2.67982759,0 5.98531034,0" id="Fill-6" fill="#405689"></path>
                                <path d="M6.51315517,4.58431034 L6.51315517,4.01736207 C6.51315517,3.74208621 6.69724138,3.67691379 6.82593103,3.67691379 L7.62258621,3.67691379 L7.62258621,2.4632069 L6.52618966,2.45834483 C5.31087931,2.45834483 5.03389655,3.36413793 5.03389655,3.94406897 L5.03389655,4.58431034 L4.3317931,4.58431034 L4.3317931,6.00331034 L5.04041379,6.00331034 L5.04041379,9.54656897 L6.45775862,9.54656897 L6.45775862,6.00331034 L7.51013793,6.00331034 L7.56227586,5.44613793 L7.64048276,4.58431034 L6.51315517,4.58431034" id="Fill-12" fill="#FFFFFE"></path>
                            </g>
                        </g>
                        <g id="Group-38" transform="translate(36.000000, 0.000000)">
                            <g id="Group-14">
                                <path d="M11.9689655,5.98536207 C11.9689655,9.2907931 9.28913793,11.9690172 5.98365517,11.9690172 C2.67822414,11.9690172 0,9.2907931 0,5.98536207 C0,2.67987931 2.67822414,0 5.98365517,0 C9.28913793,0 11.9689655,2.67987931 11.9689655,5.98536207 Z" id="Fill-11" fill="#4EB5DA"></path>
                                <path d="M9.57268966,3.82634483 C9.312,3.94039655 9.03181034,4.01694828 8.73863793,4.05118966 C9.03832759,3.87527586 9.26963793,3.59343103 9.37717241,3.2595 C9.09693103,3.42408621 8.78581034,3.54294828 8.45348276,3.60646552 C8.18958621,3.32953448 7.81158621,3.15517241 7.39293103,3.15517241 C6.58981034,3.15517241 5.93808621,3.79706897 5.93808621,4.58715517 C5.93808621,4.69965517 5.95112069,4.80874138 5.97563793,4.91301724 C4.76684483,4.85275862 3.69481034,4.2825 2.97801724,3.41756897 C2.85263793,3.62767241 2.78089655,3.87527586 2.78089655,4.13751724 C2.78089655,4.63287931 3.03832759,5.07103448 3.42765517,5.32846552 C3.18982759,5.3202931 2.96498276,5.25672414 2.76946552,5.14918966 L2.76946552,5.16713793 C2.76946552,5.35122414 2.80536207,5.52558621 2.86887931,5.68686207 C3.0465,6.13484483 3.44565517,6.47374138 3.93594828,6.57134483 C3.81382759,6.60403448 3.68508621,6.62187931 3.55313793,6.62187931 C3.45868966,6.62187931 3.36739655,6.61210345 3.27941379,6.59586207 C3.46344828,7.16436207 4.00117241,7.57825862 4.63810345,7.58958621 C4.13958621,7.97405172 3.51243103,8.20381034 2.83143103,8.20381034 C2.71256897,8.20381034 2.59851724,8.1972931 2.48275862,8.18260345 C3.12791379,8.58998276 3.89198276,8.82610345 4.71305172,8.82610345 C6.98731034,8.82610345 8.38505172,7.25084483 8.75322414,5.61682759 C8.81844828,5.32846552 8.85258621,5.0367931 8.85258621,4.75339655 C8.85258621,4.69148276 8.85098276,4.62946552 8.84772414,4.56765517 C9.13282759,4.36562069 9.37882759,4.11315517 9.57268966,3.82634483" id="Fill-19" fill="#FFFFFE"></path>
                            </g>
                        </g>
                    </g>
                </g>
            </g>
        </g>
    </g>
</svg>