<?xml version="1.0" encoding="UTF-8"?>
<svg width="9px" height="12px" viewBox="0 0 9 12" version="1.1" xmlns="http://www.w3.org/2000/svg" xmlns:xlink="http://www.w3.org/1999/xlink">
    <!-- Generator: Sketch 47.1 (45422) - http://www.bohemiancoding.com/sketch -->
    <title>smartphone (1)</title>
    <desc>Created with Sketch.</desc>
    <defs></defs>
    <g id="Page-1" stroke="none" stroke-width="1" fill="none" fill-rule="evenodd">
        <g id="Mobile" transform="translate(-29.000000, -305.000000)" fill-rule="nonzero" fill="#AFAFAF">
            <g id="profile" transform="translate(11.000000, 162.000000)">
                <g transform="translate(0.000000, 30.000000)" id="Group-16">
                    <g>
                        <g id="Group-2" transform="translate(16.000000, 75.000000)">
                            <g id="smartphone-(1)" transform="translate(2.156098, 38.000000)">
                                <g id="Group">
                                    <path d="M7.36012458,0 L0.805287371,0 C0.363117338,0 0.00342892064,0.340668076 0.00342892064,0.759424947 L0.00342892064,11.2358055 C0.00342892064,11.654537 0.363144127,11.9952304 0.805314159,11.9952304 L7.36012458,11.9952304 C7.80229461,11.9952304 8.16200982,11.6545624 8.16200982,11.2358055 L8.16200982,0.759424947 C8.16198303,0.340668076 7.80229461,0 7.36012458,0 Z M0.405255558,1.90873573 L7.76018318,1.90873573 L7.76018318,9.84159831 L0.405255558,9.84159831 L0.405255558,1.90873573 Z M0.805287371,0.380549683 L7.36012458,0.380549683 C7.58070062,0.380549683 7.76018318,0.550503171 7.76018318,0.759424947 L7.76018318,1.65503594 L0.405255558,1.65503594 L0.405255558,0.759424947 C0.405255558,0.550503171 0.584711335,0.380549683 0.805287371,0.380549683 Z M7.36012458,11.6146554 L0.805287371,11.6146554 C0.584711335,11.6146554 0.40522877,11.4447019 0.40522877,11.2357801 L0.40522877,10.0952727 L7.76015639,10.0952727 L7.76015639,11.2357801 C7.76015639,11.4447019 7.58070062,11.6146554 7.36012458,11.6146554 Z" id="Shape"></path>
                                    <path d="M4.08271937,10.2634757 C3.71986992,10.2634757 3.42468807,10.5430529 3.42468807,10.8866892 C3.42468807,11.2303256 3.7198967,11.5098774 4.08271937,11.5098774 C4.44554204,11.5098774 4.74075067,11.2303002 4.74075067,10.8866892 C4.74075067,10.5430782 4.44556882,10.2634757 4.08271937,10.2634757 L4.08271937,10.2634757 Z M4.08271937,11.2561776 C3.86758139,11.2561776 3.69257249,11.0904101 3.69257249,10.8866892 C3.69257249,10.6829429 3.86758139,10.5171755 4.08271937,10.5171755 C4.29785735,10.5171755 4.47286625,10.6829429 4.47286625,10.8866892 C4.47286625,11.0904101 4.29785735,11.2561776 4.08271937,11.2561776 Z" id="Shape"></path>
                                    <path d="M3.17191232,1.20875264 L4.99352642,1.20875264 C5.06751609,1.20875264 5.12746863,1.15194926 5.12746863,1.08190275 C5.12746863,1.01185624 5.06751609,0.955052854 4.99352642,0.955052854 L3.17191232,0.955052854 C3.09792265,0.955052854 3.03797011,1.01185624 3.03797011,1.08190275 C3.03797011,1.15194926 3.09792265,1.20875264 3.17191232,1.20875264 Z" id="Shape"></path>
                                    <path d="M2.68980072,1.20875264 C2.72489358,1.20875264 2.75945068,1.19530655 2.78436393,1.17171247 C2.80927718,1.14786469 2.82374294,1.11539112 2.82374294,1.08190275 C2.82374294,1.04841438 2.80927718,1.0159408 2.78436393,0.992093023 C2.75942389,0.968498943 2.7248668,0.955052854 2.68980072,0.955052854 C2.65443998,0.955052854 2.62012399,0.968498943 2.59496964,0.992093023 C2.57005639,1.0156871 2.55585851,1.04841438 2.55585851,1.08190275 C2.55585851,1.11539112 2.57005639,1.14786469 2.59496964,1.17171247 C2.61988289,1.19530655 2.65443998,1.20875264 2.68980072,1.20875264 Z" id="Shape"></path>
                                </g>
                            </g>
                        </g>
                    </g>
                </g>
            </g>
        </g>
    </g>
</svg>